<?xml version="1.0" encoding="UTF-8"?>
<svg id="Layer_1" data-name="Layer 1" xmlns="http://www.w3.org/2000/svg" viewBox="0 0 796.53 360.71">
  <defs>
    <style>
      .cls-1 {
        fill: #f3e743;
      }

      .cls-2, .cls-3 {
        fill: #fff;
      }

      .cls-4, .cls-5 {
        fill: #333;
      }

      .cls-6 {
        letter-spacing: -.02em;
      }

      .cls-3 {
        stroke-width: 10px;
      }

      .cls-3, .cls-7, .cls-8 {
        stroke-miterlimit: 10;
      }

      .cls-3, .cls-8 {
        stroke: #333;
      }

      .cls-5 {
        font-family: BubblegumSans-Regular, 'Bubblegum Sans';
        font-size: 126.99px;
      }

      .cls-7 {
        fill: #2cbbdf;
        stroke: #2cbbdf;
        stroke-width: 9px;
      }

      .cls-9 {
        letter-spacing: -.02em;
      }

      .cls-8 {
        fill: #8059a0;
        stroke-width: 15px;
      }
    </style>
  </defs>
  <path class="cls-7" d="M283.09,261.97l13.51,76.08c2.25,12.69-11.13,22.39-22.49,16.29l-58.72-31.52c-22.38-12.01-49.09-12.85-72.18-2.25l-55,25.25c-13.9,6.38-29.01-6.16-25.3-21l15.58-62.31c4.6-18.4-.59-37.88-13.74-51.55L8.38,152.32c-7.87-8.19-3.06-21.85,8.2-23.3l51.84-6.67c31.83-4.1,59.5-23.84,73.72-52.61l27.41-55.43c6.46-13.06,25.07-13.1,31.59-.08l28.98,57.9c13.73,27.43,39.74,46.63,69.99,51.67l46.54,7.76c14.72,2.45,20.04,20.87,8.89,30.8l-54.83,48.81c-14.29,12.72-20.96,31.95-17.61,50.79Z"/>
  <path class="cls-8" d="M266.82,239.53l17.99,101.29c.51,2.86-2.51,5.04-5.07,3.67l-90.9-48.8c-5.59-3-12.26-3.21-18.02-.56l-93.72,43.03c-2.65,1.22-5.53-1.17-4.82-4l23.45-93.79c1.69-6.76-.22-13.92-5.05-18.94L19.47,147.38c-1.98-2.06-.77-5.49,2.06-5.86l95.19-12.25c6.72-.86,12.56-5.03,15.56-11.1L181.55,18.55c1.27-2.57,4.94-2.58,6.22-.01l50.12,100.14c2.9,5.79,8.39,9.84,14.77,10.91l96.58,16.1c2.88,.48,3.92,4.08,1.74,6.02l-77.7,69.17c-5.25,4.67-7.7,11.74-6.47,18.66Z"/>
  <path class="cls-1" d="M247.8,258.57l5.03,28.34c.76,4.29-3.76,7.57-7.6,5.51l-60.23-32.34c-1.72-.92-3.78-.99-5.55-.17l-58.9,27.04c-5.25,2.41-10.95-2.32-9.55-7.92l5.18-20.74c6.47-25.9-.83-45.31-19.33-64.55l-21-21.84c-2.67-2.78-1.04-7.42,2.79-7.91l64.47-8.3c2.07-.27,3.87-1.55,4.8-3.42l32.59-65.89c2.04-4.13,7.93-4.15,10-.02l33.07,66.07c.89,1.78,2.59,3.03,4.55,3.36l62.4,10.4c4.93,.82,6.71,6.99,2.98,10.31l-20.89,18.6c-20.11,17.9-29.5,36.96-24.79,63.47Z"/>
  <g>
    <path class="cls-4" d="M112.58,202.34c4.14,33.54,32.56,52.89,72.75,52.91,40.18-.02,68.6-19.36,72.75-52.91-48.2,7.63-97.3,7.63-145.49,0Z"/>
    <path class="cls-2" d="M230.1,222.09c-29.79,2.78-59.77,2.78-89.56,0-3.84-.36-6.61-3.68-6.21-7.36,.08-.71,.15-1.41,.23-2.12,33.74,3.65,67.77,3.65,101.51,0,.08,.71,.15,1.41,.23,2.12,.41,3.68-2.37,7-6.21,7.36Z"/>
  </g>
  <g>
    <text class="cls-5" transform="translate(385.37 182.55)"><tspan class="cls-9" x="0" y="0">S</tspan><tspan x="63.88" y="0">ib</tspan><tspan class="cls-6" x="150.99" y="0">l</tspan><tspan x="177.02" y="0">ings</tspan></text>
    <text class="cls-5" transform="translate(378.63 311.85)"><tspan x="0" y="0">Reunited</tspan></text>
  </g>
  <g>
    <g>
      <ellipse class="cls-3" cx="239.32" cy="143.37" rx="43.78" ry="44.03"/>
      <ellipse class="cls-4" cx="238.66" cy="142.7" rx="21.89" ry="22.01"/>
      <ellipse class="cls-2" cx="226.58" cy="129.2" rx="9.74" ry="9.79"/>
    </g>
    <g>
      <ellipse class="cls-3" cx="131.32" cy="143.37" rx="43.78" ry="44.03"/>
      <ellipse class="cls-4" cx="130.66" cy="142.7" rx="21.89" ry="22.01"/>
      <ellipse class="cls-2" cx="118.58" cy="129.2" rx="9.74" ry="9.79"/>
    </g>
  </g>
</svg>