<svg width="104" height="104" viewBox="0 0 104 104" fill="none" xmlns="http://www.w3.org/2000/svg">
<path d="M51.7058 103.137C80.1863 103.137 103.274 80.0491 103.274 51.5686C103.274 23.088 80.1863 0 51.7058 0C23.2252 0 0.137207 23.088 0.137207 51.5686C0.137207 80.0491 23.2252 103.137 51.7058 103.137Z" fill="#3C5A99"/>
<path d="M55.7145 77.3529V53.8651H63.631L64.8195 44.6693H55.7145V38.8175C55.7145 36.1585 56.4497 34.3556 60.2569 34.3556H65.0814V26.157C64.2454 26.0462 61.3648 25.7944 58.0109 25.7944C51.0108 25.7944 46.2166 30.065 46.2166 37.911V44.6794H38.3302V53.8751H46.2166V77.3529H55.7145Z" fill="white"/>
</svg>
