<svg width="104" height="104" viewBox="0 0 104 104" fill="none" xmlns="http://www.w3.org/2000/svg">
<path d="M51.8429 103.137C80.3235 103.137 103.412 80.0491 103.412 51.5686C103.412 23.088 80.3235 0 51.8429 0C23.3624 0 0.274353 23.088 0.274353 51.5686C0.274353 80.0491 23.3624 103.137 51.8429 103.137Z" fill="#E4405F"/>
<path d="M51.8429 25.7842C44.8429 25.7842 43.9667 25.8144 41.217 25.9353C38.4673 26.0662 36.604 26.4993 34.9623 27.1338C33.2702 27.7885 31.8299 28.6748 30.3896 30.1051C28.9493 31.5353 28.0731 32.9756 27.4184 34.6777C26.7838 36.3195 26.3507 38.1929 26.2198 40.9325C26.0889 43.6821 26.0687 44.5584 26.0687 51.5584C26.0687 58.5584 26.0989 59.4347 26.2198 62.1844C26.3507 64.9239 26.7838 66.7973 27.4184 68.4391C28.0731 70.1312 28.9594 71.5714 30.3896 73.0117C31.8198 74.442 33.2601 75.3283 34.9623 75.983C36.604 76.6175 38.4774 77.0506 41.217 77.1815C43.9667 77.3125 44.8429 77.3326 51.8429 77.3326C58.843 77.3326 59.7192 77.3024 62.4689 77.1815C65.2085 77.0506 67.0819 76.6175 68.7236 75.983C70.4157 75.3283 71.856 74.442 73.2963 73.0117C74.7265 71.5815 75.6128 70.1412 76.2675 68.4391C76.9021 66.7973 77.3352 64.9239 77.4661 62.1844C77.597 59.4347 77.6172 58.5584 77.6172 51.5584C77.6172 44.5584 77.587 43.6821 77.4661 40.9325C77.3352 38.1929 76.9021 36.3195 76.2675 34.6777C75.6128 32.9857 74.7265 31.5454 73.2963 30.1051C71.8661 28.6748 70.4258 27.7885 68.7236 27.1338C67.0819 26.4993 65.2085 26.0662 62.4689 25.9353C59.7192 25.8144 58.843 25.7842 51.8429 25.7842ZM51.8429 30.4274C58.7221 30.4274 59.548 30.4576 62.2675 30.5784C64.7855 30.6993 66.1452 31.1123 67.0517 31.4749C68.2603 31.9382 69.1164 32.5022 70.0229 33.3986C70.9193 34.3051 71.4833 35.1612 71.9466 36.3698C72.2992 37.2763 72.7222 38.636 72.833 41.154C72.9538 43.8735 72.9841 44.6893 72.9841 51.5785C72.9841 58.4678 72.9538 59.2836 72.8229 62.0031C72.692 64.5211 72.2689 65.8808 71.9164 66.7872C71.433 67.9959 70.8891 68.852 69.9826 69.7585C69.0862 70.6549 68.2099 71.2189 67.0214 71.6822C66.115 72.0348 64.7351 72.4578 62.2171 72.5686C59.4775 72.6894 58.6718 72.7197 51.7724 72.7197C44.8731 72.7197 44.0674 72.6894 41.3278 72.5585C38.8098 72.4276 37.4299 72.0045 36.5234 71.652C35.3047 71.1686 34.4587 70.6247 33.5623 69.7182C32.6558 68.8218 32.0817 67.9455 31.6285 66.757C31.2759 65.8506 30.8529 64.4707 30.722 61.9527C30.6213 59.2433 30.591 58.4074 30.591 51.5483C30.591 44.6792 30.6213 43.8433 30.722 41.1037C30.8529 38.5857 31.2659 37.2058 31.6285 36.2993C32.0817 35.0706 32.6558 34.2346 33.5623 33.3281C34.4587 32.4317 35.3047 31.8475 36.5234 31.3943C37.4299 31.0418 38.7796 30.6187 41.2976 30.4878C44.0372 30.3871 44.8429 30.3569 51.7422 30.3569L51.8429 30.4274ZM51.8429 38.3238C44.5307 38.3238 38.5983 44.2562 38.5983 51.5685C38.5983 58.8807 44.5307 64.8131 51.8429 64.8131C59.1552 64.8131 65.0876 58.8807 65.0876 51.5685C65.0876 44.2562 59.1552 38.3238 51.8429 38.3238ZM51.8429 60.1599C47.099 60.1599 43.2515 56.3124 43.2515 51.5685C43.2515 46.8246 47.099 42.9771 51.8429 42.9771C56.5869 42.9771 60.4344 46.8246 60.4344 51.5685C60.4344 56.3124 56.5869 60.1599 51.8429 60.1599V60.1599ZM68.7035 37.8101C68.7035 39.5224 67.3135 40.9022 65.6114 40.9022C63.8991 40.9022 62.5193 39.5123 62.5193 37.8101C62.5193 36.108 63.9092 34.718 65.6114 34.718C67.3135 34.708 68.7035 36.0979 68.7035 37.8101Z" fill="white"/>
</svg>
