<svg width="104" height="104" viewBox="0 0 104 104" fill="none" xmlns="http://www.w3.org/2000/svg">
<path d="M51.5686 103.137C80.0491 103.137 103.137 80.0491 103.137 51.5686C103.137 23.088 80.0491 0 51.5686 0C23.088 0 0 23.088 0 51.5686C0 80.0491 23.088 103.137 51.5686 103.137Z" fill="#5EA7FF"/>
<path fill-rule="evenodd" clip-rule="evenodd" d="M74.8014 37.6402C74.8014 37.6402 79.0755 37.3035 80.7908 36.0274C80.7908 36.0274 80.3797 37.4964 75.2365 42.1441C75.2365 42.1441 76.9682 67.2225 50.5818 73.3644C50.5818 73.3644 37.2002 76.214 27.5032 68.9449C27.5032 68.9449 37.6543 70.7454 43.3654 64.4484C43.3654 64.4484 35.9985 64.5228 33.6685 57.0305C33.6685 57.0305 36.4501 57.6294 38.1033 56.8804C38.1033 56.8804 29.7586 55.1555 29.9091 46.0883C29.9091 46.0883 32.1645 47.7376 34.1934 47.4375C34.1934 47.4375 26.6772 41.0661 31.3372 33.1248C31.3372 33.1248 41.4086 44.9963 53.8909 44.2915C53.6733 43.4416 53.5556 42.5514 53.5556 41.6309C53.5556 35.7286 58.3586 30.9409 64.2822 30.9409C67.275 30.9409 69.982 32.164 71.9287 34.1348C73.3555 34.1588 76.2902 33.9053 79.221 31.8135C79.221 31.8147 79.3892 34.1008 74.8014 37.6402V37.6402Z" fill="white"/>
</svg>
