<?xml version="1.0" encoding="UTF-8"?>
<svg id="Layer_3" data-name="Layer 3" xmlns="http://www.w3.org/2000/svg" viewBox="0 0 1418.08 1831.2">
  <defs>
    <style>
      .cls-1 {
        fill: #609199;
      }

      .cls-1, .cls-2, .cls-3, .cls-4, .cls-5, .cls-6, .cls-7, .cls-8, .cls-9, .cls-10, .cls-11, .cls-12, .cls-13, .cls-14, .cls-15, .cls-16, .cls-17, .cls-18, .cls-19, .cls-20, .cls-21, .cls-22, .cls-23, .cls-24, .cls-25, .cls-26, .cls-27, .cls-28, .cls-29 {
        stroke-width: 0px;
      }

      .cls-2 {
        fill: #95b0f0;
      }

      .cls-3 {
        fill: #d1cca1;
      }

      .cls-4 {
        fill: #acb800;
      }

      .cls-5 {
        fill: #e34653;
      }

      .cls-6 {
        fill: #e37454;
      }

      .cls-7 {
        fill: #c977cc;
      }

      .cls-8 {
        fill: #b36128;
      }

      .cls-9 {
        fill: #ab6a3c;
      }

      .cls-10 {
        fill: #bc70bf;
      }

      .cls-11 {
        fill: #c2692b;
      }

      .cls-12 {
        fill: #8c2467;
      }

      .cls-13 {
        fill: #b8c400;
      }

      .cls-14 {
        fill: #9ea800;
      }

      .cls-15 {
        fill: #8c5779;
      }

      .cls-16 {
        fill: #995f36;
      }

      .cls-17 {
        fill: #83c6d1;
      }

      .cls-18 {
        fill: #94562e;
      }

      .cls-19 {
        fill: #ffad75;
      }

      .cls-20 {
        fill: #ede7b6;
      }

      .cls-21 {
        fill: #e6e0b0;
      }

      .cls-22 {
        fill: #f04b57;
      }

      .cls-23 {
        fill: #ff4f5d;
      }

      .cls-24 {
        fill: #ffab70;
      }

      .cls-25 {
        fill: #ffb887;
      }

      .cls-26 {
        fill: #ffb582;
      }

      .cls-27 {
        fill: #ffb27d;
      }

      .cls-28 {
        fill: #ffc094;
      }

      .cls-29 {
        fill: #ffb17a;
      }
    </style>
  </defs>
  <ellipse class="cls-2" cx="718.76" cy="1784.45" rx="536.3" ry="46.75"/>
  <g>
    <path class="cls-20" d="M757.92,1294.4c.32,8.8.49,17.6.53,26.41,1.37-8.86,2.65-17.74,3.74-26.64-1.42.09-2.85.15-4.27.23Z"/>
    <path class="cls-21" d="M707.95,1145.93c17.23,10.94,29.18,28.87,36.22,48.03,7.04,19.16,9.58,39.66,11.31,60,1.15,13.46,1.96,26.94,2.44,40.44,1.42-.08,2.85-.14,4.27-.23,7.91-64.15,8.54-129.08-.2-192.94-69.71,20.82-146.45,16.02-216.76-4.49-62.59-18.25-120.91-48.12-176.86-81.94-1.54,3.42-2.95,6.9-4.29,10.4,77.21,58.14,170.77,94.36,267.02,103.21,26.44,2.43,54.44,3.27,76.86,17.51Z"/>
    <path class="cls-25" d="M857.4,242.52c-4.89,20.81-30.32,30.9-37.5,51.04-3.08,8.64-2.39,18.1-1.73,27.25,1.2,16.78,2,34.07,1.09,51.04.77,11.91.6,23.88-.57,35.76-2.65,26.94-10.13,53.08-16.45,79.43,26.46,16.94,51.66,35.83,75.64,56.36,31.62-8.38,61.78-22,84.02-45.51,16.64-17.58,27.75-39.55,41.9-59.19,16.16-22.42,36.22-41.71,53.93-62.93,8.13-9.75,15.81-20.09,22.26-31.06-83.58-3.69-165.57-40.84-222.59-102.21Z"/>
    <path class="cls-29" d="M1050.63,324.68c-35.04-5.2-68.22-19.27-99.26-36.32-22.17-12.18-43.6-26.04-62.05-43.35-12.92-12.13-24.36-26.04-33.02-41.46-14.95,28.33-37.03,52.87-63.66,70.67,2.52,6.2,4.88,12.47,7.05,18.8,11.16,24.82,17.83,51.67,19.57,78.83.91-16.97.11-34.26-1.09-51.04-.66-9.15-1.35-18.61,1.73-27.25,7.18-20.14,32.61-30.23,37.5-51.04,57.02,61.37,139.01,98.52,222.59,102.21,3.48-5.92,6.62-12.02,9.24-18.31-12.88.78-25.88.15-38.59-1.74Z"/>
    <path class="cls-26" d="M369.23,414.83c4.22-19.7,14.39-37.5,23.47-55.49,9.08-17.98,17.34-37.18,17.21-57.32,24.82,11.06,53.09,10.85,80.18,8.78,27.1-2.07,54.51-5.79,81.27-1.1,35.02,6.13,66.77,26.77,88.95,54.55,16.69,20.9,28.15,45.61,34.75,71.58.58-2.08,1.13-4.16,1.64-6.26-11.45-49.94-34.74-97.11-67.35-136.62-5.63-1.69-11.34-3.11-17.13-4.19-30.44-5.69-61.73-2.98-92.6-.52-30.87,2.46-62.28,4.62-92.5-2.12-9.01-2.01-17.93-4.95-26.42-8.78.25,4.21.09,8.46-.43,12.63-1.46,11.65-5.53,22.81-10.29,33.55-10.19,22.98-23.67,44.51-31.94,68.25-2.68,7.69-4.74,15.76-5.93,23.91,4.69,8.84,10.11,17.35,15.96,25.64-1.19-8.75-.69-17.88,1.15-26.47Z"/>
    <path class="cls-28" d="M660.32,364.25c-22.19-27.78-53.93-48.42-88.95-54.55-26.77-4.68-54.18-.96-81.27,1.1-27.1,2.07-55.36,2.27-80.18-8.78.13,20.14-8.13,39.34-17.21,57.32-9.08,17.98-19.25,35.79-23.47,55.49-1.84,8.59-2.34,17.72-1.15,26.47,10.85,15.38,23.21,29.93,35.5,44.05,3.94,4.53,7.94,9.07,11.99,13.58,5.95-.03,11.89-.84,17.6-2.53-5.71,1.69-11.65,2.49-17.6,2.53,2.62,2.91,5.27,5.81,7.95,8.67,2.8-.27,5.59-.67,8.36-1.27-2.77.59-5.56,1-8.36,1.27,18.54,19.75,38.78,37.79,63.22,48.66,2.21-4.54,4.39-9.11,6.64-13.63-2.25,4.52-4.42,9.09-6.64,13.63,1.17.52,2.32,1.06,3.51,1.55,38.45,15.75,83.86,10.97,120.15-9.26,24.52-13.67,44.9-33.92,60.15-57.58-6.16-4.44-12.41-8.74-18.63-12.98,6.21,4.24,12.47,8.55,18.63,12.98,7.31-11.35,13.46-23.48,18.28-36.06,2.4-6.26,4.47-12.63,6.26-19.08-6.6-25.97-18.06-50.69-34.75-71.58Z"/>
    <path class="cls-23" d="M502.66,703.97c5.07.63,7.7,6.29,8.99,11.23,2.6,9.96,3.58,20.35,7.04,30.04,3.7,10.38,10.09,19.54,15.39,29.19,3.4,6.18,6.39,12.82,7.86,19.67,29.9,7.25,60.17,13.66,90.85,12.98,22.02-.49,43.81-4.63,65.55-9.07,24.69-5.04,49.3-10.45,74.08-11.36,7.46-14.8,13.3-30.15,15.81-46.2-19.03-8.96-35.35-23.77-45.63-42.14-15.98-28.53-17.17-62.61-21.67-95.01-4.5-32.39-14.54-67.12-41.38-85.81-22.44,34.92-58.93,60.52-99.4,69.74-34.29,7.81-71.07,3.74-103.01-10.9-63.09,133.43-110.38,274.33-140.35,418.85,10.45,6.65,20.98,13.2,31.6,19.62,55.95,33.82,114.27,63.68,176.86,81.94,53.53,15.61,110.77,22.08,165.82,15.11,11.84-25.06,16.12-54,14.52-81.9-2.26-39.54-15.09-77.65-28.87-114.78-49.9,7.53-102.16-1.55-146.61-25.45-35.35-19.01-65.57-47.33-87.15-81.15-2.45-2.59-4.88-5.2-7.29-7.82-10.99-11.92-22.45-25.18-23.81-41.34-.93-10.98,2.99-21.59,7.67-31.71.26-3.87.83-7.72,1.78-11.49.76-3.03,1.85-6.18,4.25-8.19,1.31-1.09,3.1-1.66,4.79-1.57.73-2.87,1.8-5.68,3.8-7.83,2.06-2.22,5.33-3.49,8.19-2.83.04-.18.08-.36.12-.54.61-2.42,1.37-4.89,2.96-6.82,1.58-1.93,4.17-3.23,6.6-2.63,2.71.66,4.39,3.35,5.46,5.93,3.78,9.07,3.61,19.22,5.34,28.88,1.32,7.36,4.33,15.05,9.72,19.9,1.94-2.96,2.51-7.03,2.14-10.68-.54-5.26-2.41-10.43-1.9-15.69.5-5.26,4.66-10.82,9.91-10.17Z"/>
    <path class="cls-22" d="M580.14,587.24c40.47-9.22,76.96-34.82,99.4-69.74,26.84,18.69,36.88,53.41,41.38,85.81,4.5,32.39,5.69,66.47,21.67,95.01,10.29,18.37,26.6,33.18,45.63,42.14.71-4.56,1.2-9.16,1.33-13.84.03-1.05,0-2.1,0-3.15-10.23-10.06-18.95-21.54-25.36-34.4-16.82-33.75-16.75-73.69-26.42-109.91-10.06-11.49-17.57-25.74-22.26-40.28-1.11-3.45-2.09-6.92-2.98-10.42-11.84-14.36-26.61-26.38-42.02-37.48-15.24,23.66-35.62,43.91-60.15,57.58-36.29,20.23-81.7,25.01-120.15,9.26-1.19-.49-2.34-1.03-3.51-1.55-3.25,6.67-6.43,13.38-9.6,20.09,31.94,14.64,68.73,18.71,103.01,10.9Z"/>
    <path class="cls-5" d="M962.3,871.5c-4.16-32.46-11.41-64.5-21.64-95.58-.66-2.01-1.34-4.02-2.03-6.03-9.65-.61-19.34-.46-28.96.43.7,2.57,1.39,5.14,2.07,7.72,9.03,34.48,15.37,69.65,18.96,105.11.49,4.86.96,9.72,1.35,14.59,10.96-1.84,21.76-4.68,32.22-8.46-.55-5.94-1.21-11.87-1.96-17.78Z"/>
    <path class="cls-27" d="M696.71,429.57c-2.13,8.59-4.73,17.05-7.9,25.33-4.82,12.58-10.97,24.71-18.28,36.06,15.41,11.1,30.17,23.12,42.02,37.48-6.45-25.46-7.55-52.15-11.74-78.18-1.12-6.95-2.53-13.84-4.1-20.69Z"/>
    <path class="cls-13" d="M771.91,518.88c2.94-2.21,6.14-4.11,9.51-5.68-.58-7.89-1.15-15.78-1.73-23.67-2.52,9.79-5.21,19.57-7.79,29.36Z"/>
    <path class="cls-1" d="M626.8,1767.34c-9.65-6-19.97-11.05-29.27-17.49-2.64-1.83-5.22-3.75-7.65-5.87-1-.87-1.97-1.79-2.93-2.73-3.38-3.34-6.4-7.12-8.82-11.19-2.79-4.71-4.75-9.81-5.48-15.07-5.91.38-11.83.53-17.76.44-19.04-.3-38.04-3.05-56.39-8.14-4.9-1.36-9.76-2.87-14.56-4.57-5.95,24.04-11.91,48.07-17.86,72.11-.36,1.47-.72,2.96-1.06,4.46,58.05,13.97,119.4,13.9,177.45-.06-4.72-4.52-10.15-8.45-15.67-11.89Z"/>
    <path class="cls-25" d="M498.5,1707.28c18.35,5.09,37.35,7.83,56.39,8.14,1.91-8.3,4.29-16.48,7.12-24.52-17.98-3.47-35.71-8.23-52.99-14.3-3.9,10.09-7.41,20.32-10.53,30.68Z"/>
    <path class="cls-17" d="M465.02,1779.28c-.82,3.64-1.47,7.33-1.55,10.98,62.43,7.74,126.41,13.04,187.49-.91-2.37-3.68-5.27-7.04-8.49-10.13-58.04,13.96-119.4,14.02-177.45.06Z"/>
    <path class="cls-15" d="M886.49,1804.5c1.92,2.41,5.53,2.37,8.6,2.06,43.12-4.34,84.49-18.8,125.38-33.16,4.17-1.46,8.67-3.19,10.96-6.97,1.47-2.44,1.73-5.25,1.43-8.11-46.93,20.87-96.67,35.37-147.46,42.99.04,1.16.36,2.28,1.08,3.18Z"/>
    <path class="cls-17" d="M.02,1373.74c-.42,51.17,7.88,102.4,24.44,150.82,3.87-3.69,7.58-7.54,11.16-11.51-18.73-44.01-28.61-91.76-28.89-139.59-2.24.1-4.47.2-6.71.28Z"/>
    <path class="cls-28" d="M792.64,274.22c-.6.4-1.2.82-1.81,1.22,3.21,5.73,6.17,11.59,8.86,17.58-2.17-6.33-4.53-12.6-7.05-18.8Z"/>
    <path class="cls-28" d="M1241.69,1156.61c-.05-.12-.09-.24-.14-.36-.23.27-.45.53-.68.8.27-.15.55-.29.82-.44Z"/>
    <path class="cls-14" d="M1085.48,1273.43c59.3-27.86,113.28-66.82,155.39-116.38-51.44,27.86-105.01,51.74-160.09,71.46,1.57,14.97,3.13,29.95,4.7,44.92Z"/>
    <path class="cls-8" d="M358.93,465.02c6.77,12.88,18.1,23.31,31.5,28.97,7.92,3.35,16.53,4.97,25.13,4.93-4.05-4.5-8.04-9.05-11.99-13.58-18.92-21.72-38.08-44.45-51.46-69.69-2.47,16.99-1.08,34.33,6.81,49.36Z"/>
    <path class="cls-25" d="M84.27,1371.26c5.5,24.65,12.05,49.07,19.65,73.16,7.13-2.09,14.37-3.8,21.68-5.13-7.06-24.18-13.67-48.48-19.84-72.9-7.24,1.26-14.41,2.88-21.49,4.87Z"/>
    <path class="cls-1" d="M103.92,1444.43c-7.6-24.09-14.15-48.51-19.65-73.16-.32-1.43-.63-2.87-.94-4.3-25.43,3.22-51,5.39-76.61,6.5.29,47.83,10.16,95.58,28.89,139.59,12.79-14.2,23.69-30.1,32.29-47.16,1.57-.28,3.16-.52,4.73-.82,3.75-.72,7.49-1.52,11.22-2.36,3.67-.83,7.32-1.74,10.96-2.69,4.35-1.14,8.67-2.35,12.97-3.66-1.32-3.97-2.62-7.95-3.87-11.94Z"/>
    <path class="cls-21" d="M495.28,1642.66c-3.5,8.15-7.18,16.22-11.14,24.16,8.17,3.56,16.47,6.83,24.88,9.78,1.37-3.55,2.78-7.08,4.25-10.59-1.47,3.51-2.88,7.04-4.25,10.59,17.28,6.07,35,10.83,52.99,14.3,1.58-4.47,3.25-8.91,5.11-13.27-1.85,4.37-3.53,8.8-5.11,13.27,21.22,4.09,42.79,6.33,64.4,6.7,3.79-7.36,7.55-14.74,11.25-22.15-19.15-.53-38.54-4.47-57.38-8.44-28.89-6.09-58.16-12.31-84.99-24.36Z"/>
    <path class="cls-21" d="M132.51,1352.64c-10.02.65-20.07.77-30.09.44,1.09,4.44,2.21,8.88,3.33,13.32,5.6-.97,11.23-1.8,16.89-2.33-5.66.53-11.29,1.35-16.89,2.33,6.17,24.42,12.78,48.73,19.84,72.9,5.4-.99,10.82-1.83,16.28-2.41-5.46.57-10.88,1.42-16.28,2.41,3.4,11.65,6.91,23.27,10.52,34.85,9.7,1.5,19.46,2.61,29.25,3.31-10.33-25.94-18.36-52.79-23.87-80.16-2.99-14.86-5.3-29.99-8.99-44.66Z"/>
    <path class="cls-11" d="M415.56,498.92c-8.6.04-17.21-1.58-25.13-4.93-13.4-5.66-24.74-16.09-31.5-28.97-7.9-15.04-9.28-32.38-6.81-49.36,1.19-8.15,3.25-16.22,5.93-23.91,8.27-23.73,21.75-45.27,31.94-68.25,4.76-10.73,8.83-21.9,10.29-33.55.52-4.17.68-8.42.43-12.63-11.28-5.1-21.78-11.8-30.62-20.13-20,12.07-35.58,31.03-46.13,52-11.97,23.79-17.95,50.15-21.86,76.5-.63,4.23-1.19,8.51-1.63,12.82-2,19.47-1.47,39.4,7.5,56.51,12.99,24.76,40.66,37.95,67.45,45.96,15.59,4.66,32.02,8.14,48.09,6.6-2.68-2.86-5.33-5.75-7.95-8.67Z"/>
    <path class="cls-14" d="M762.19,1294.17c-1.4,11.39-3.03,22.76-4.89,34.09,16.34.86,32.71,1.35,49.07,1.37-1.39-12.94-2.2-25.89-2.32-38.84-13.93,1.38-27.89,2.51-41.86,3.38Z"/>
    <path class="cls-14" d="M937.08,1269.76c3.92,15.82,5.58,31.95,6.08,48.27,3.86-.7,7.71-1.4,11.56-2.17-4.74-16.04-7.61-32.32-8.31-48.18-3.11.71-6.21,1.4-9.32,2.08Z"/>
    <path class="cls-12" d="M1005.68,1686.54c-1.68.69-3.37,1.36-5.07,2.01-23.9,9.09-49.57,13.53-75.13,12.96-1.81-.04-3.61-.1-5.41-.19,4.69,14.46,10.96,28.41,18.65,41.52-16.19,16.61-32.38,33.23-48.57,49.84-1.58,1.62-3.2,3.29-4.1,5.37-.44,1.02-.68,2.16-.64,3.27,50.79-7.61,100.53-22.12,147.46-42.99-.24-2.33-.84-4.68-1.5-6.9-6.64-22.32-16-43.69-25.68-64.89Z"/>
    <path class="cls-12" d="M1394.09,1448.14c-29.39-8.82-58.46-18.71-87.11-29.71-.05,2.29-.14,4.57-.2,6.86-.64,24.82-1.88,49.62-3.78,74.38-.44,5.78-.94,11.56-1.46,17.33,17.73,2.03,35.55,3.3,53.39,3.76,13.26,16.35,27.06,38.08,40.17,52.97,5.13,5.83,10.35,11.73,16.88,15.94-8.09-46.88-14.06-94.12-17.89-141.53Z"/>
    <path class="cls-15" d="M1418.02,1586.77c-3.97-45.57-8.01-91.23-16.05-136.25-2.63-.77-5.26-1.59-7.88-2.38,3.83,47.42,9.8,94.66,17.89,141.53.04.03.08.05.12.08,1.62,1.03,3.96,1.88,5.26.47.82-.89.77-2.25.66-3.46Z"/>
    <path class="cls-8" d="M746.32,539.81c-.13-32.07,6.62-64.04,4.32-96.03-2.67-37.16-17.97-73.31-42.79-101.1-1.95-2.18-3.98-4.3-6.04-6.37-20.04-20.18-45.22-35.2-72.46-43.35,32.61,39.51,55.91,86.68,67.35,136.62,1.57,6.85,2.98,13.75,4.1,20.69,4.19,26.03,5.29,52.72,11.74,78.18.89,3.5,1.87,6.98,2.98,10.42,4.69,14.55,12.19,28.79,22.26,40.28,5.72,6.53,12.26,12.15,19.6,16.43-7.82-17.03-10.97-36.86-11.05-55.77Z"/>
    <path class="cls-4" d="M768.32,633.61c-2.47-9.35-4.4-18.84-5.81-28.4-.36-2.47-.69-4.94-.99-7.42-.61-.3-1.23-.61-1.83-.93-.78-.42-1.55-.84-2.31-1.28-7.33-4.28-13.88-9.9-19.6-16.43,9.67,36.22,9.6,76.16,26.42,109.91,6.41,12.86,15.12,24.35,25.36,34.4-.09-30.77-13.35-59.99-21.24-89.85Z"/>
    <path class="cls-13" d="M974.72,712.96c-1.17-12-7.09-22.92-11.79-34.03-4.7-11.11-8.27-23.63-4.54-35.09,1.33-4.09,4.12-8.29,8.37-8.93.61-.09,1.2-.09,1.77-.04-28.04-32.95-58.23-63.7-90.64-91.46-3.47.92-6.95,1.76-10.45,2.56,1.1,1.68,2.16,3.38,3.16,5.12,11.91,20.79,17.16,44.67,21.14,68.3,7.97,47.31,11.44,96.21.75,142.98-.86,3.75-1.85,7.49-2.91,11.2,7.34,1.7,14.74,3.17,22.16,4.48-.67-2.58-1.36-5.15-2.07-7.72,9.62-.89,19.31-1.04,28.96-.43.69,2.01,1.37,4.01,2.03,6.03,1.97-1.76,3.91-3.55,5.82-5.37,5.82-5.52,11.3-11.36,15.94-17.89,8.2-11.54,13.67-25.61,12.3-39.7Z"/>
    <path class="cls-13" d="M798.21,504.88c-.24,1.15-.46,2.3-.69,3.45,5.97-.89,12.07-.85,17.97.2,21.62,3.86,39.87,18.92,51.95,37.42,3.49-.8,6.98-1.64,10.45-2.56-23.98-20.53-49.18-39.42-75.64-56.36-1.42,5.93-2.79,11.88-4.03,17.84Z"/>
    <path class="cls-18" d="M404.02,473.14c.59-1.48,4.76-.94,10.77-1.63,5.96-.61,14.07-2.86,20.58-8.41,6.48-5.58,9.95-13.25,11.48-19.04,1.61-5.83,1.72-10.03,3.27-10.39,1.32-.38,4.14,3.61,4.37,11.21.12,3.75-.55,8.3-2.44,13.01-1.87,4.7-5.06,9.53-9.61,13.47-4.59,3.88-9.86,6.3-14.79,7.42-4.94,1.14-9.54,1.1-13.23.41-7.48-1.4-10.98-4.8-10.41-6.05Z"/>
    <path class="cls-18" d="M525.25,385.96c.87-1.36,4.98.14,11.18.13,6.08.11,14.78-1.76,20.97-7.69,6.14-5.99,8.3-14.62,8.39-20.7.22-6.2-1.14-10.35.25-11.18.62-.37,1.83.2,3.31,1.86,1.48,1.65,3.07,4.49,4.07,8.36,1.01,3.86,1.28,8.76.1,14.04-1.16,5.25-3.92,10.89-8.56,15.44-4.71,4.49-10.44,7.06-15.72,8.04-5.31,1-10.2.57-14.02-.57-3.83-1.13-6.62-2.82-8.22-4.35-1.61-1.53-2.14-2.76-1.75-3.37Z"/>
    <path class="cls-6" d="M587.21,462.54c-1.48-.94-3.91-1.36-6.38-.66-2.47.69-4.33,2.32-5.1,3.89-.8,1.59-.59,2.99.27,3.78.87.81,2.13,1.01,3.36,1.06.17,0,.35-.02.52-.03-.35,2.07-.82,4.64-1.63,7.61-1.94,7.38-6.67,17.3-15.55,24.39-8.91,7.04-19.65,9.39-27.28,9.6-7.73.3-12.7-.99-13.17.23-.21.53.77,1.55,2.92,2.73,2.14,1.19,5.52,2.41,9.89,3.07,4.36.68,9.74.65,15.53-.66,5.78-1.29,11.94-3.98,17.42-8.28,5.43-4.36,9.45-9.75,12.02-15.08,2.59-5.34,3.84-10.57,4.17-14.98.3-3.84,0-6.97-.51-9.29,1.06-.34,2.04-.78,2.94-1.36,1.03-.68,2-1.5,2.32-2.65.32-1.12-.23-2.43-1.74-3.37Z"/>
    <path class="cls-24" d="M474.76,416.56c.99-1.01,7.11,2.77,14.83,11.32,3.84,4.27,8.02,9.75,11.94,16.3,1.97,3.27,3.85,6.82,5.61,10.6.89,1.87,1.72,3.87,2.52,5.8.78,1.91,1.5,3.69,2.31,5.19,1.64,3.05,3.27,4.5,5.89,5.45,2.55.9,5.58.89,8.14.16,5.39-1.52,9.78-5.83,12.76-9.83,3.05-4.1,5.11-8.06,6.8-10.69,1.67-2.67,2.9-4.07,3.61-3.82.7.25.83,2.1.36,5.29-.52,3.17-1.5,7.76-4.21,13.23-1.37,2.73-3.23,5.63-5.83,8.38-2.6,2.72-5.98,5.36-10.32,6.96-4.39,1.6-9.46,2.01-14.57.48-2.54-.77-5.08-2.07-7.26-4.01-2.19-1.9-3.78-4.23-4.98-6.46-1.2-2.25-2.02-4.38-2.77-6.32-.75-1.9-1.44-3.69-2.21-5.47-1.5-3.54-3.05-6.92-4.65-10.09-3.18-6.34-6.43-11.89-9.3-16.5-5.74-9.22-9.81-14.84-8.69-15.95Z"/>
    <path class="cls-11" d="M383.74,446.12c-1.42.12-3.21-3.3-3.56-9.31-.2-2.99.1-6.57.94-10.46.9-3.86,2.38-8.02,4.57-12.07,2.23-4.02,4.92-7.52,7.69-10.36,2.82-2.8,5.67-4.99,8.29-6.44,5.24-2.95,9.09-3.29,9.76-2.03.75,1.38-1.58,4.05-4.91,8-1.69,1.96-3.57,4.34-5.54,7-1.92,2.71-3.9,5.73-5.74,9.05-1.8,3.35-3.27,6.65-4.51,9.72-1.17,3.1-2.16,5.96-2.9,8.44-1.53,4.94-2.51,8.34-4.08,8.45Z"/>
    <path class="cls-11" d="M474.89,341.85c-.9-1.14,1.02-4.51,5.54-8.51,4.49-3.98,11.71-8.4,20.48-11.24,8.77-2.82,17.21-3.47,23.19-2.86,6.01.59,9.54,2.21,9.47,3.66-.21,3.11-13.83,4.43-29.32,9.55-15.56,4.9-27.38,11.79-29.37,9.4Z"/>
    <path class="cls-18" d="M844.76,333.99c1.58.29,1.81,4.52,3.95,10.17,2.02,5.6,6.47,12.88,13.79,17.03,7.35,4.1,15.89,4.13,21.72,2.94,5.94-1.1,9.68-3.1,10.75-1.9.48.54.18,1.81-1.1,3.54-1.27,1.73-3.61,3.81-7.03,5.59-3.4,1.79-7.93,3.14-13.14,3.3-5.18.17-11.08-.98-16.53-3.99-5.41-3.09-9.46-7.53-12-12.05-2.57-4.53-3.76-9.1-4-12.94-.25-3.85.31-6.93,1.13-8.91.82-1.99,1.74-2.91,2.46-2.78Z"/>
    <path class="cls-18" d="M963.37,395.86c1.35.85.07,4.71.62,10.22.29,2.73,1.03,5.87,2.66,8.75,1.57,2.85,4.17,5.47,7.52,7.34,3.37,1.82,6.99,2.62,10.24,2.42,3.31-.16,6.38-1.21,8.85-2.42,4.98-2.47,7.58-5.61,9.02-4.92.65.31.92,1.58.36,3.62-.55,2.02-2.01,4.78-4.76,7.47-2.75,2.64-6.85,5.2-12.13,6.19-5.3,1.05-11.49.12-16.87-2.83-5.38-2.96-9.46-7.68-11.4-12.7-1.97-4.98-1.98-9.8-1.2-13.52.82-3.75,2.39-6.45,3.81-7.99,1.43-1.56,2.66-2.01,3.27-1.62Z"/>
    <path class="cls-24" d="M888.9,424.65c.91-1.28,5.42.63,12.51,2.35,1.77.42,3.71.82,5.79,1.14,2.1.31,4.29.58,6.28.49,2.01-.06,3.73-.54,4.75-1.3,1.01-.69,1.99-2.11,2.92-4.43.89-2.24,1.79-5.23,2.73-7.83.93-2.65,1.86-5.2,2.78-7.61,1.84-4.83,3.64-9.13,5.31-12.7,3.33-7.13,6.1-11.31,7.53-10.85,1.43.46,1.25,5.47-.21,13.21-.73,3.87-1.77,8.41-3.09,13.41-.66,2.5-1.39,5.11-2.18,7.81-.83,2.72-1.51,5.35-2.79,8.65-1.26,3.17-3.43,7-7.25,9.32-3.75,2.29-7.68,2.57-10.78,2.35-3.18-.24-5.83-.99-8.18-1.76-2.37-.8-4.51-1.73-6.37-2.72-7.49-4.02-10.59-8.4-9.74-9.52Z"/>
    <path class="cls-6" d="M916.3,473.49c-1.01-1.02-5.44,2.63-13.5,5.16-4.01,1.22-8.94,2.11-14.27,1.76-5.3-.3-11.03-2.03-16.29-5.19-5.24-3.21-9.41-7.5-12.12-12.06-2.77-4.57-4.25-9.35-5.02-13.47-.84-4.7-.82-8.49-.89-11.01.69-.18,1.34-.43,1.96-.74,1.22-.63,2.3-1.51,2.7-2.77.4-1.23-.05-2.66-1.38-3.81-1.31-1.15-3.51-1.95-5.96-1.82-2.45.12-4.56,1.14-5.75,2.42-1.21,1.28-1.51,2.74-.99,3.93.53,1.21,1.69,1.98,2.97,2.48.87.33,1.83.5,2.81.58-1.09,2.51-2.09,6.36-2.15,11.28-.02,4.97.99,11.05,4.04,17.13,3,6.11,8.18,11.9,14.87,15.98,6.7,4.05,14.23,5.98,21.04,5.82,6.8-.11,12.66-2.01,17.06-4.32,4.41-2.36,7.41-5.08,9.12-7.23,1.72-2.15,2.22-3.67,1.77-4.1Z"/>
    <path class="cls-9" d="M851.79,287.82c-.55-1.32,1.69-3.87,6.55-5.8,2.41-.98,5.45-1.65,8.89-1.92,3.43-.2,7.25.06,11.13.98,3.86.97,7.37,2.5,10.33,4.26,2.93,1.82,5.31,3.82,7,5.8,3.42,3.95,4.23,7.25,3.14,8.16-1.19,1.02-3.95-.29-7.85-2.09-3.91-1.84-9.13-4.06-15.19-5.57-6.07-1.46-11.73-1.89-16.05-2.07-4.3-.2-7.35-.32-7.93-1.77Z"/>
    <path class="cls-9" d="M993.17,353.38c-.09-1.44,2.82-3.15,7.99-3.27,5.09-.16,12.42,1.65,18.77,6.69,6.35,5.04,9.77,11.77,10.77,16.76,1.05,5.06.04,8.28-1.38,8.52-1.52.28-3.22-2.17-5.7-5.51-2.46-3.36-5.88-7.62-10.45-11.25-4.57-3.63-9.5-5.99-13.33-7.63-3.81-1.66-6.59-2.76-6.66-4.3Z"/>
    <g>
      <path class="cls-17" d="M593.11,1735.18c-.99-1.24-2.98-1.25-4.63-.26h0c-7.21,4.74-15.85,7.36-24.48,7.42h0c-1.96.06-3.65,1.18-3.79,2.78-.14,1.55,1.57,3.01,3.84,3.01h0c9.77-.07,19.45-3.01,27.61-8.37h0c1.84-1.26,2.42-3.39,1.46-4.59Z"/>
      <path class="cls-17" d="M599.46,1742.46c-1.22-1.02-3.08-.73-4.42.42h0c-5.73,5.44-13.55,8.76-21.45,9.11h0c-1.79.13-3.32,1.28-3.44,2.88-.12,1.55,1.53,2.99,3.71,2.9h0c9.33-.42,18.38-4.26,25.16-10.68h0c1.53-1.5,1.62-3.66.44-4.63Z"/>
      <path class="cls-17" d="M610.45,1751.35c-1.06-1.18-2.98-1.13-4.46-.08h0c-6.44,4.95-14.12,8.31-22.13,9.68h0c-1.81.36-3.19,1.75-3.04,3.35.14,1.55,1.94,2.7,4.02,2.36h0c8.95-1.53,17.48-5.26,24.68-10.79h0c1.61-1.3,1.97-3.37.94-4.51Z"/>
      <path class="cls-17" d="M577.22,1730.24c-.64-1.45-4.08-1.33-8-.71h-.01c-4.24.73-8.62.7-12.85-.1-2.12-.39-4.19-.99-6.18-1.78-.94-.39-2.12-.86-2.69-1.22l-.18-.12.28-.14c.33-.16.81-.29,1.38-.44.53-.15,1.06-.31,1.61-.4,2.17-.46,4.41-.66,6.65-.54,4.47.23,8.91,1.55,12.76,3.82h0c3.41,1.96,6.46,3.53,7.69,2.48.57-.53.47-1.68-.31-3.13-.81-1.4-2.33-3.08-4.42-4.32h0c-4.69-2.77-10.02-4.35-15.44-4.63-2.71-.14-5.45.09-8.13.66-.67.11-1.33.32-1.99.5-.63.17-1.35.36-2.15.72-.35.16-.79.36-1.35.74-.52.34-.99.74-1.38,1.19-.8.9-1.25,2.04-1.32,3.21-.03,1.1.27,2.21.91,3.14.31.47.71.89,1.14,1.28.44.4.94.73,1.22.91,1.42.85,2.44,1.19,3.64,1.7,2.34.92,4.76,1.62,7.22,2.08,4.92.92,9.99.97,14.93.11h.01c4.66-.9,7.63-3.61,6.99-5Z"/>
      <path class="cls-17" d="M578.27,1730.34c-.27,1.52,3.38,3.46,8.29,3.62h.01c2.7.07,5.4-.04,8.08-.3,2.65-.25,5.49-.68,8.24-1.62,2.74-.94,5.62-2.45,7.74-5.08,2.06-2.52,3.37-6.39,1.9-10.15-.72-1.91-2.5-3.59-4.33-4.23-1.84-.7-3.56-.73-5.1-.62-3.01.32-5.69,1.04-8.34,2.1-5.25,2.12-9.73,5.38-13.77,8.85h0c-3.7,3.26-5.48,6.93-4.39,8.04,1.12,1.14,4.69-.67,8.17-3.64h0c3.77-3.25,7.79-6.12,12.15-7.87,2.14-.87,4.5-1.47,6.63-1.7,1.02-.09,1.96,0,2.54.24.59.25.84.51,1.06,1.01.21.51.27,1.31.09,2.09-.16.76-.56,1.51-1.14,2.25-1.13,1.43-2.98,2.5-5.1,3.22-4.25,1.39-9.45,1.67-14.33,1.61h-.01c-4.43-.02-8.15.62-8.42,2.17Z"/>
    </g>
    <g>
      <path class="cls-17" d="M76.6,1471.04c.98-1.25.54-3.18-.8-4.57h0c-6.25-5.95-10.76-13.77-12.77-22.17h0c-.51-1.9-1.98-3.29-3.57-3.06-1.54.21-2.58,2.21-2.06,4.42h0c2.28,9.5,7.33,18.26,14.4,25h0c1.64,1.51,3.85,1.59,4.79.38Z"/>
      <path class="cls-17" d="M70.94,1478.89c.72-1.42.01-3.16-1.41-4.21h0c-6.6-4.36-11.6-11.22-13.73-18.83h0c-.53-1.71-1.99-2.95-3.59-2.7-1.53.23-2.56,2.17-1.99,4.27h0c2.52,9,8.32,16.94,16.11,22.09h0c1.8,1.15,3.92.75,4.6-.62Z"/>
      <path class="cls-17" d="M64.77,1491.6c.91-1.3.43-3.16-.93-4.37h0c-6.28-5.15-11.29-11.88-14.44-19.37h0c-.76-1.69-2.42-2.71-3.95-2.21-1.48.49-2.19,2.5-1.39,4.45h0c3.51,8.37,9.08,15.84,16.1,21.59h0c1.63,1.28,3.72,1.16,4.6-.1Z"/>
      <path class="cls-17" d="M77.81,1454.46c1.27-.96.37-4.27-1.12-7.95h0c-1.68-3.97-2.63-8.25-2.82-12.55-.1-2.15.01-4.31.33-6.42.16-1.01.36-2.26.58-2.9l.07-.21.2.24c.23.29.47.72.75,1.24.26.49.55.96.76,1.48.94,2.01,1.64,4.15,2.03,6.35.79,4.41.51,9.03-.83,13.29h0c-1.13,3.77-1.97,7.09-.67,8.05.65.44,1.75.08,2.98-1.01,1.18-1.1,2.47-2.96,3.21-5.28h0c1.63-5.2,1.97-10.75,1.01-16.09-.48-2.67-1.32-5.29-2.48-7.77-.26-.63-.61-1.23-.94-1.83-.31-.57-.66-1.23-1.19-1.93-.23-.31-.53-.69-1.03-1.15-.44-.43-.94-.79-1.47-1.08-1.06-.58-2.27-.76-3.43-.56-1.08.22-2.09.76-2.85,1.59-.39.41-.71.89-.99,1.4-.29.52-.5,1.08-.61,1.39-.5,1.58-.6,2.64-.83,3.93-.37,2.48-.5,5-.39,7.5.21,5,1.32,9.95,3.27,14.57h0c1.92,4.35,5.24,6.63,6.45,5.69Z"/>
      <path class="cls-17" d="M77.95,1455.49c-1.54.08-2.6,4.07-1.65,8.9h0c.55,2.65,1.26,5.26,2.13,7.82.85,2.53,1.9,5.19,3.45,7.66,1.54,2.45,3.66,4.92,6.7,6.39,2.92,1.44,6.99,1.84,10.31-.44,1.7-1.13,2.93-3.24,3.14-5.18.27-1.95-.1-3.63-.55-5.1-.99-2.86-2.3-5.31-3.93-7.64-3.25-4.63-7.45-8.26-11.74-11.41h0c-4.01-2.87-7.98-3.77-8.82-2.45-.86,1.35,1.72,4.42,5.4,7.13h0c4.02,2.94,7.72,6.21,10.42,10.06,1.34,1.89,2.45,4.05,3.16,6.07.32.98.44,1.91.34,2.53-.1.63-.3.93-.74,1.26-.45.32-1.22.56-2.02.56-.77.02-1.6-.2-2.45-.6-1.65-.78-3.11-2.33-4.29-4.24-2.32-3.83-3.76-8.83-4.82-13.59h0c-.98-4.33-2.44-7.81-4.02-7.72Z"/>
    </g>
    <path class="cls-15" d="M958.6,1726.86c-.47-1.5-2.25-2.27-4.05-1.86h0c-7.94,2.1-16.16,3.13-24.37,3.06h0c-1.88.02-3.45,1.22-3.54,2.81-.08,1.57,1.47,2.94,3.49,2.99h0c8.73.08,17.46-1.02,25.89-3.25h0c1.9-.56,3.03-2.26,2.57-3.74Z"/>
    <path class="cls-15" d="M960.91,1742.83c-.42-1.52-2.18-2.34-4.01-2.02h0c-8.09,1.75-16.5,2.08-24.7.96h0c-1.88-.21-3.61.74-3.92,2.31-.3,1.54,1.09,3.13,3.14,3.43h0c8.87,1.21,17.95.85,26.7-1.04h0c1.98-.48,3.2-2.16,2.79-3.65Z"/>
    <path class="cls-15" d="M946.99,1759.71c.1-1.57-1.08-2.9-2.63-3.12h0c-6.93-.68-13.78-2.17-20.36-4.44h0c-1.52-.48-3.17.25-3.75,1.73-.57,1.47.25,3.17,1.86,3.75h0c7.01,2.41,14.3,4,21.68,4.72h0c1.68.11,3.1-1.09,3.19-2.64Z"/>
    <path class="cls-15" d="M1328.3,1525.67c1.3.82,3.15.31,4.01-1.24h0c3.59-6.9,5.38-14.69,5.16-22.46h0c-.07-1.81-1.52-3.11-3.08-2.94-1.59.18-2.71,1.55-2.71,3.09h0c.19,6.78-1.38,13.62-4.51,19.63h0c-.63,1.38-.22,3.07,1.12,3.91Z"/>
    <path class="cls-15" d="M1345.21,1529.34c1.2.97,3.12.64,4.19-.83h0c4.51-6.58,7.47-14.18,8.57-22.07h0c.24-1.84-.97-3.41-2.53-3.51-1.59-.1-2.94,1.11-3.21,2.7h0c-.98,7-3.61,13.78-7.61,19.61h0c-.83,1.35-.65,3.12.59,4.11Z"/>
    <path class="cls-15" d="M1359.2,1532.28c1.04,1.15,2.68,1.4,3.64.51h0c4.06-4.07,7.44-8.81,9.97-13.98h0c.56-1.21-.21-2.71-1.65-3.32-1.46-.62-3-.26-3.55.77h0c-2.25,4.59-5.26,8.82-8.87,12.44h0c-.76.86-.59,2.41.46,3.58Z"/>
    <path class="cls-4" d="M1029.04,795.91c-1.29,4.15-2.73,8.26-4.4,12.29-11.62,28.17-34.05,52.86-62.35,63.3.76,5.92,1.41,11.84,1.96,17.78-10.46,3.78-21.25,6.62-32.22,8.46-.39-4.87-.86-9.73-1.35-14.59-40.1,11.57-84.56,8.02-123.79-7.07-1.17-.45-2.31-.95-3.47-1.42-19.26,6.66-39.22,11.4-59.52,14.48,13.33,69.27,21.66,139.5,24.89,209.97-2.26.74-4.53,1.44-6.81,2.12,8.74,63.85,8.12,128.79.2,192.94,7.07-.44,14.13-.94,21.19-1.52,42.58-113.01,53.8-237.73,31.69-356.47,51.78,5.27,107.5,9.77,152.58-16.24,27.01-15.58,47.8-41.65,56.98-71.45,5.22-16.94,6.65-35,4.42-52.58Z"/>
    <path class="cls-13" d="M1082.36,798.43c-14.54-25.33-30-50.21-46.36-74.42,1.7,24.29.18,48.88-6.96,71.9,2.22,17.59.8,35.64-4.42,52.58-9.18,29.8-29.96,55.87-56.98,71.45-45.08,26.01-100.8,21.51-152.58,16.24,22.11,118.75,10.89,243.47-31.69,356.47,6.9-.56,13.79-1.18,20.67-1.86-.02-2.19-.03-4.39-.01-6.58-.02,2.19,0,4.39.01,6.58,44.7-4.42,89.14-11.45,133.03-21.04-.65-2.6-1.33-5.2-2.1-7.79.77,2.59,1.46,5.18,2.1,7.79,3.11-.68,6.22-1.38,9.32-2.08-.14-3.05-.22-6.1-.19-9.11-.03,3.02.06,6.06.19,9.11,45.53-10.34,90.43-23.43,134.38-39.16-.64-6.11-1.28-12.22-1.92-18.34.64,6.11,1.28,12.22,1.92,18.34,55.07-19.72,108.65-43.6,160.09-71.46.23-.27.46-.53.68-.8-46.01-122.82-94.4-244.96-159.19-357.82Z"/>
    <path class="cls-7" d="M908.69,1415.76c-.06-14.34,2.1-28.66,1.42-42.99-.68-14.33-4.67-29.26-14.94-39.26-13.6-13.24-34.37-14.77-53.3-16.16-12.58-.92-26.07-2.63-37.17-8.03.39,6.77.95,13.54,1.68,20.31,7.62,70.88,32.7,141.28,57.59,207.71,20.5,54.72,41.01,109.45,61.51,164.17,25.57.57,51.23-3.86,75.13-12.96-2.07-25.38-5.67-50.62-10.73-75.57-11.4-28.15-27.61-54.54-42.5-81.18-20.12-35.99-38.52-74.81-38.69-116.03Z"/>
    <path class="cls-10" d="M944.63,1452.68c-7.26-44.21-.09-90.08-1.47-134.66-.5-16.31-2.16-32.45-6.08-48.27-43.89,9.59-88.33,16.62-133.03,21.04.06,6.18.28,12.35.64,18.53,11.1,5.4,24.59,7.1,37.17,8.03,18.93,1.39,39.7,2.92,53.3,16.16,10.28,10.01,14.26,24.94,14.94,39.26.68,14.33-1.48,28.64-1.42,42.99.18,41.23,18.58,80.05,38.69,116.03,14.89,26.64,31.1,53.03,42.5,81.18-4.87-24.01-11.11-47.74-18.71-71.03-9.65-29.55-21.51-58.6-26.54-89.27Z"/>
    <path class="cls-10" d="M1016.49,1277.51c10.69-1,22.12-3.34,31.7,1.51,10.86,5.49,15.65,18.52,16.87,30.63,1.62,16.06-1.08,33.25,6.28,47.61,6.29,12.28,19.07,20.16,32.34,23.93,13.27,3.77,27.25,3.99,41.03,4.65,35.71,1.7,71.25,6.57,106.13,14.41-8.61-2.95-17.31-5.65-26.03-8.11-39.4-11.09-79.84-18.36-118.85-30.78-3.65-1.16-7.5-2.51-9.86-5.53-2.25-2.88-2.72-6.73-3.1-10.37-2.51-24.02-5.02-48.03-7.53-72.05-1.57-14.97-3.13-29.95-4.7-44.92-41.66,14.91-84.17,27.42-127.25,37.49,19.44,9.41,41.45,13.53,62.96,11.52Z"/>
    <path class="cls-7" d="M1250.85,1400.26c-34.88-7.84-70.42-12.7-106.13-14.41-13.78-.66-27.76-.88-41.03-4.65-13.27-3.77-26.05-11.65-32.34-23.93-7.36-14.36-4.66-31.55-6.28-47.61-1.22-12.11-6.01-25.14-16.87-30.63-9.58-4.85-21.01-2.51-31.7-1.51-21.51,2.02-43.52-2.11-62.96-11.52-2.38.56-4.75,1.13-7.13,1.68.71,15.86,3.57,32.15,8.31,48.18,13.53,45.8,42.26,89.45,79.27,114.56,42.66,28.94,94.73,39.61,145.29,49.67,40.97,8.15,82.12,16.3,123.71,19.58,1.9-24.76,3.14-49.56,3.78-74.38-17.55-10.33-36.5-18.38-55.93-25.04Z"/>
    <path class="cls-5" d="M691.15,798.62c.38-.68-1.06-2.38-3.67-4.58-1.3-1.11-2.92-2.3-4.72-3.63-1.75-1.41-3.71-2.89-5.82-4.38l-.02-.02c-9.24-6.74-18.01-14.18-25.82-22.58-7.81-8.38-14.91-17.42-21.17-27.02-6.12-9.69-11.41-19.89-15.8-30.48-4.36-10.6-7.53-21.66-9.81-32.86h0c-.48-2.6-1.01-5.05-1.56-7.27-.49-2.23-.88-4.24-1.35-5.92-.92-3.36-1.88-5.44-2.66-5.37-.79.06-1.25,2.27-1.37,5.84-.04,1.78-.07,3.91.14,6.26.27,2.33.65,4.89,1.12,7.57h0c2.36,11.59,5.64,23.01,10.13,33.94,4.52,10.92,9.98,21.44,16.29,31.43,6.45,9.9,13.77,19.22,21.83,27.87,8.05,8.66,17.1,16.35,26.65,23.31h.02c2.2,1.53,4.33,2.91,6.3,4.1,2.02,1.11,3.92,1.97,5.52,2.65,3.22,1.35,5.37,1.82,5.75,1.14Z"/>
    <path class="cls-23" d="M928.15,861.64c-3.75-28.17-9.21-56.11-16.41-83.6-7.42-1.31-14.82-2.77-22.16-4.48-9.2,32.34-25.99,62.94-50.03,85.85-4.47,2.27-9.01,4.37-13.6,6.38,11.81,3.84,23.83,6.8,36.18,8.21,22.61,2.58,46.77-.81,66.02-12.37Z"/>
    <path class="cls-22" d="M862.12,874.01c-12.34-1.41-24.37-4.38-36.18-8.21-7.38,3.25-14.89,6.23-22.52,8.86,1.16.47,2.3.97,3.47,1.42,39.23,15.09,83.7,18.64,123.79,7.07-.73-7.19-1.6-14.36-2.55-21.52-19.25,11.56-43.41,14.96-66.02,12.37Z"/>
    <path class="cls-22" d="M550.09,889.72c44.45,23.9,96.71,32.97,146.61,25.45,13.78,37.13,26.61,75.24,28.87,114.78,1.59,27.9-2.68,56.84-14.52,81.9,17.26-2.19,34.3-5.65,50.94-10.63,2.28-.68,4.55-1.39,6.81-2.12-3.23-70.47-11.56-140.69-24.89-209.97-32.52,4.94-65.91,5.63-98.64,3.1-46-3.55-94.1-17.66-130.54-46.01-9.35-3.22-18.16-8.19-26.12-14.11-9.34-6.93-17.66-15.1-25.66-23.56,21.59,33.82,51.8,62.14,87.15,81.15Z"/>
    <path class="cls-20" d="M420.35,1111.47c-.35,7.36,0,14.76.94,22.08.92,7.32,2.3,14.61,4.31,21.74,3.88,14.3,9.74,28.05,16.96,41.01,7.33,12.94,15.96,25.15,25.48,36.65,9.51,11.51,19.84,22.37,30.61,32.81h.01c2.91,2.85,5.59,5.57,7.92,8.04-8.17-11.04-16.77-21.85-24.73-32.99-29.05-40.69-49.96-87.16-61.21-135.87-.13,2.07-.28,4.22-.29,6.49v.04Z"/>
    <path class="cls-20" d="M757.92,1294.4c-11.2.65-22.4,1.18-33.61,1.49,11.21-.32,22.42-.84,33.61-1.49-.48-13.5-1.29-26.98-2.44-40.44-1.73-20.34-4.27-40.84-11.31-60-7.04-19.16-18.99-37.08-36.22-48.03-22.41-14.23-50.42-15.08-76.86-17.51-96.25-8.86-189.81-45.08-267.02-103.21-6.98,18.29-11.15,37.65-12.14,57.2-1.28,25.43,2.64,50.92,1.06,76.34-3.79,60.99-40.41,117.6-91.12,151.71-38.12,25.64-83.38,39.18-129.37,42.19,3.69,14.67,6,29.8,8.99,44.66,5.51,27.37,13.55,54.22,23.87,80.16,66.64,4.81,134.62-8.69,194.1-39.19,65.66-33.67,120.5-87.87,155.45-152.82-.09-.13-.19-.26-.28-.39-1.75.37-10.52-5.93-20.02-15.13h-.01c-10.87-10.55-21.35-21.56-31.04-33.29-9.7-11.71-18.53-24.2-26.06-37.5-7.45-13.35-13.48-27.53-17.5-42.33-2.08-7.38-3.51-14.94-4.47-22.56-.98-7.62-1.34-15.33-.98-23.03v-.04c.06-3.48.61-6.76,1-9.73.53-2.95,1.2-5.57,1.78-7.75,1.45-4.31,2.72-6.81,3.47-6.62.76.19.88,3,.48,7.34-.06,2.2-.28,4.78-.5,7.64-.02.91-.09,1.89-.15,2.86,11.25,48.71,32.16,95.18,61.21,135.87,7.96,11.15,16.55,21.95,24.73,32.99,5.57,5.9,9.06,10.31,8.3,11.16-.05.06-.14.08-.23.1.09.13.19.26.28.39,4.33-8.05,8.41-16.23,12.11-24.59-3.7,8.36-7.78,16.54-12.11,24.59,7.22,10.51,13.75,21.41,18.71,33.18,15.61,37.12,14.02,79.02,10.06,119.1-6.93,70.1-20.7,140.43-48.41,204.93,26.83,12.05,56.1,18.28,84.99,24.36,18.84,3.97,38.23,7.91,57.38,8.44,43.68-87.45,80.9-178.31,104.4-273.11,6.06-24.45,11.18-49.18,15.25-74.09-16.56-.87-33.09-2.11-49.55-3.75,16.46,1.64,32.99,2.87,49.55,3.75.41-2.48.76-4.97,1.14-7.46-.03-8.8-.21-17.61-.53-26.41Z"/>
    <path class="cls-3" d="M498.66,1265.77h-.01c-10.76-10.45-21.09-21.31-30.61-32.82-9.52-11.5-18.15-23.71-25.48-36.65-7.23-12.96-13.08-26.72-16.96-41.01-2.01-7.13-3.39-14.42-4.31-21.74-.95-7.33-1.28-14.72-.94-22.08v-.04c.01-2.28.16-4.42.29-6.49-.68-2.95-1.34-5.91-1.95-8.87.61,2.97,1.27,5.92,1.95,8.87.06-.96.13-1.94.15-2.86.22-2.86.44-5.44.5-7.64.4-4.34.28-7.15-.48-7.34-.76-.19-2.02,2.31-3.47,6.62-.59,2.17-1.25,4.79-1.78,7.75-.39,2.97-.94,6.25-1,9.73v.04c-.37,7.7-.01,15.41.97,23.03.96,7.62,2.39,15.18,4.47,22.56,4.02,14.8,10.06,28.98,17.5,42.33,7.53,13.3,16.36,25.79,26.06,37.5,9.69,11.72,20.17,22.74,31.04,33.27h.01c9.5,9.22,18.27,15.52,20.02,15.15-2.61-3.79-5.31-7.54-8.06-11.26-2.33-2.47-5.02-5.19-7.92-8.03Z"/>
    <path class="cls-3" d="M506.58,1273.8c2.75,3.72,5.45,7.46,8.06,11.26.09-.02.18-.04.23-.1.76-.84-2.73-5.25-8.3-11.16Z"/>
    <path class="cls-19" d="M472.31,744.29c-.44-.88-.99-1.85-1.49-2.98-1.09-2.21-2.25-4.9-3.39-7.94-.52-1.53-1.13-3.13-1.59-4.83-.53-1.68-.95-3.46-1.4-5.27-.37-1.83-.76-3.62-1-5.36-.31-1.74-.45-3.43-.63-5.05-.27-3.23-.39-6.16-.35-8.62-.03-1.24.05-2.35.07-3.33,0-.99.05-1.83.08-2.53.05-1.39-.02-2.19-.2-2.22-.18-.03-.48.7-.85,2.07-.19.68-.39,1.53-.55,2.52-.16.99-.38,2.12-.47,3.38-.29,2.52-.37,5.55-.23,8.91.12,1.67.21,3.44.5,5.25.22,1.82.6,3.68.98,5.58.47,1.88.92,3.72,1.51,5.46.52,1.76,1.2,3.39,1.81,4.95,1.31,3.09,2.69,5.79,4.03,7.94.63,1.1,1.31,2.03,1.88,2.85.57.83,1.11,1.51,1.58,2.04.92,1.08,1.5,1.61,1.65,1.51.15-.11-.13-.85-.77-2.09-.33-.61-.73-1.36-1.16-2.25Z"/>
    <path class="cls-19" d="M450.91,732.42c-.45-7.03-.04-13.47.16-18.15.22-4.68.25-7.61-.13-7.66-.36-.04-1.06,2.8-1.78,7.47-.69,4.66-1.43,11.21-.96,18.52.46,7.31,2.37,13.82,4.56,18.11,2.17,4.32,4.31,6.46,4.56,6.26.35-.24-1.19-2.72-2.8-7.03-1.65-4.29-3.16-10.5-3.61-17.52Z"/>
    <path class="cls-19" d="M440.15,750.36c-.51-5.93-.28-11.4-.22-15.37.08-3.98,0-6.47-.37-6.51-.37-.03-.97,2.38-1.54,6.35-.55,3.97-1.1,9.55-.57,15.76.53,6.22,2.32,11.73,4.34,15.31,1.99,3.61,3.92,5.33,4.17,5.12.33-.25-1-2.33-2.44-5.94-1.47-3.59-2.86-8.81-3.37-14.73Z"/>
    <path class="cls-19" d="M1000.89,630.43c-1.37-1.98-2.52-2.96-2.81-2.76-.65.46,2.29,5.35,4.03,12.01,1.82,6.63,1.71,12.34,2.5,12.42.35.03.86-1.39,1.06-3.79.2-2.39.01-5.76-.93-9.32-.96-3.56-2.48-6.58-3.84-8.55Z"/>
    <path class="cls-19" d="M1022.78,632.44c-1.1-1.97-2.09-2.98-2.4-2.8-.69.39,1.54,5.22,2.51,11.54,1.05,6.31.43,11.59,1.2,11.75.35.07.98-1.2,1.42-3.41.44-2.2.6-5.36.06-8.76-.55-3.41-1.68-6.35-2.78-8.31Z"/>
    <path class="cls-19" d="M1040.14,660.14c.7.18,2.16-3.66,1.66-8.57-.47-4.92-2.65-8.39-3.31-8.08-.71.3.19,3.9.6,8.34.46,4.44.28,8.15,1.04,8.3Z"/>
    <path class="cls-19" d="M973.51,637.34c-.67.41,1.81,5.47,3.67,12.06,1.92,6.57,2.52,12.18,3.31,12.17.71.03,1.34-5.93-.7-12.92-1.99-7-5.7-11.72-6.28-11.31Z"/>
    <path class="cls-28" d="M779.48,874.26c11.6-2.27,23.21-5.15,34.04-9.98,11.45-5.1,18.91-11.53,26.27-21.48,14.64-19.8,25.15-42.44,32.13-66,1.96-6.61,3.65-13.31,5.07-20.06,7.3-34.63,7.88-70.38,5.51-105.69-1.95-29.13-6.06-58.71-18.75-85.01-11.51-23.85-30.06-44.21-52.6-58.09-4.52-.43-9.11-.29-13.63.38-5.84,29.52-8.18,60.63.89,89.08-4.16-4.41-7.29-9.92-9.31-15.67-3.34-9.49-4.1-19.67-4.83-29.71-.94-12.95-1.89-25.89-2.83-38.84-3.38,1.58-6.57,3.48-9.51,5.68-5.49,20.83-10.39,41.65-11.82,62.5.3,5.48.78,10.96,1.43,16.41.29,2.48.62,4.95.99,7.42,1.41,9.56,3.34,19.05,5.81,28.4,7.89,29.87,21.15,59.08,21.24,89.85,0,1.05.03,2.1,0,3.15-.57,21.13-7.56,41.04-17.14,60.04-24.78.9-49.39,6.31-74.08,11.36-21.73,4.44-43.52,8.58-65.55,9.07-30.68.68-60.95-5.73-90.85-12.98-1.47-6.85-4.46-13.49-7.86-19.67-5.31-9.65-11.69-18.82-15.39-29.19-3.46-9.7-4.44-20.08-7.04-30.04-1.29-4.94-3.92-10.61-8.99-11.23-5.24-.65-9.41,4.91-9.91,10.17-.5,5.26,1.36,10.43,1.9,15.69.38,3.65-.19,7.72-2.14,10.68-5.39-4.84-8.4-12.54-9.72-19.9-1.73-9.67-1.57-19.82-5.34-28.88-1.07-2.58-2.75-5.26-5.46-5.93-2.43-.59-5.01.7-6.6,2.63-1.58,1.93-2.35,4.39-2.96,6.82-.04.18-.08.36-.12.54-2.86-.66-6.14.61-8.19,2.83-2,2.16-3.06,4.96-3.8,7.83-1.68-.09-3.48.47-4.79,1.57-2.4,2.01-3.49,5.16-4.25,8.19-.95,3.77-1.53,7.62-1.78,11.49-4.67,10.12-8.6,20.73-7.67,31.71.72,8.49,4.24,16.18,9,23.3,91.1,79.61,219.78,114.82,338.64,91.54ZM445.96,771.03c-.25.21-2.18-1.51-4.17-5.12-2.01-3.58-3.81-9.09-4.34-15.31-.53-6.22.02-11.8.57-15.76.57-3.97,1.17-6.39,1.54-6.35.38.03.46,2.53.37,6.51-.06,3.98-.29,9.44.22,15.37.51,5.93,1.9,11.14,3.37,14.73,1.44,3.61,2.77,5.69,2.44,5.94ZM457.33,756.97c-.26.2-2.4-1.94-4.56-6.26-2.19-4.28-4.1-10.8-4.56-18.11-.47-7.31.27-13.86.96-18.52.72-4.67,1.41-7.51,1.78-7.47.38.04.36,2.97.13,7.66-.2,4.68-.62,11.12-.16,18.15.45,7.02,1.96,13.23,3.61,17.52,1.62,4.31,3.15,6.79,2.8,7.03ZM474.24,748.63c-.15.11-.73-.43-1.65-1.51-.47-.53-1.01-1.21-1.58-2.04-.57-.83-1.25-1.75-1.88-2.85-1.34-2.15-2.72-4.85-4.03-7.94-.61-1.56-1.29-3.2-1.81-4.95-.58-1.74-1.04-3.58-1.51-5.46-.39-1.9-.77-3.76-.98-5.58-.29-1.81-.37-3.58-.5-5.25-.14-3.36-.06-6.39.23-8.91.1-1.26.31-2.39.47-3.38.15-.99.35-1.84.55-2.52.37-1.37.66-2.1.85-2.07.18.03.25.83.2,2.22-.03.7-.08,1.54-.08,2.53-.02.98-.1,2.1-.07,3.33-.04,2.46.07,5.39.35,8.62.19,1.61.32,3.31.63,5.05.24,1.75.63,3.53,1,5.36.45,1.81.87,3.59,1.4,5.27.46,1.7,1.07,3.29,1.59,4.83,1.14,3.04,2.3,5.73,3.39,7.94.5,1.13,1.05,2.1,1.49,2.98.43.89.83,1.63,1.16,2.25.64,1.24.93,1.98.77,2.09Z"/>
    <path class="cls-27" d="M891.73,619.38c-3.98-23.63-9.23-47.51-21.14-68.3-.99-1.73-2.06-3.43-3.16-5.12-12.07-18.5-30.32-33.56-51.95-37.42-1.43-.26-2.88-.45-4.34-.58,22.54,13.88,41.08,34.24,52.6,58.09,12.69,26.3,16.8,55.87,18.75,85.01,2.37,35.31,1.79,71.06-5.51,105.69-1.42,6.75-3.11,13.45-5.07,20.06-6.98,23.56-17.49,46.2-32.13,66-7.36,9.95-14.81,16.38-26.27,21.48-10.84,4.82-22.44,7.7-34.04,9.98-118.86,23.28-247.53-11.93-338.64-91.54,4.3,6.42,9.6,12.38,14.81,18.03,10.3,11.17,20.76,22.32,32.95,31.38,7.97,5.91,16.77,10.89,26.12,14.11,36.44,28.35,84.54,42.46,130.54,46.01,32.73,2.53,66.12,1.83,98.64-3.1,20.3-3.08,40.27-7.82,59.52-14.48,12.36-4.27,24.43-9.33,36.11-15.25,24.04-22.9,40.83-53.51,50.03-85.85,1.06-3.72,2.05-7.45,2.91-11.2,10.68-46.77,7.21-95.67-.75-142.98Z"/>
    <path class="cls-25" d="M964.04,830.89c4.9,4.37,10.79,8.39,17.35,8.29,8.52-.12,15.29-7.01,20.38-13.84,20.94-28.15,30.65-64.2,27.78-99.16-.41-5.02-1.06-10.21.53-15,1.72-5.2,5.82-9.18,9.33-13.37,7.42-8.85,12.57-19.52,15.16-30.78.08-2.77.03-5.54-.18-8.31-.36-4.82-1.27-9.92-4.53-13.5-2.88-3.15-8.12-4.38-11.56-2.2-.19-1.84-.5-3.65-1.12-5.4-1.58-4.43-5.08-8.4-9.66-9.46-2.39-.56-5.01-.09-7.14,1.12-1.05-2.37-2.39-4.69-4.49-6.2-3.27-2.35-7.85-2.24-11.52-.57-2.46,1.13-4.55,2.89-6.4,4.88-.79-1.08-1.68-2.07-2.79-2.83-4.88-3.36-11.98-1.55-16.16,2.65-2.71,2.72-4.43,6.18-5.65,9.85-1.41-1.24-3.05-2.07-4.85-2.23-.58-.05-1.16-.05-1.77.04-4.25.65-7.04,4.84-8.37,8.93-3.72,11.47-.16,23.99,4.54,35.09,4.7,11.11,10.62,22.02,11.79,34.03,1.37,14.09-4.1,28.16-12.3,39.7-4.64,6.53-10.13,12.36-15.94,17.89-1.91,1.82-3.85,3.61-5.82,5.37,4.63,14.08,8.62,28.36,12.02,42.78,3.42,4.39,7.21,8.49,11.36,12.19ZM1038.49,643.49c.65-.31,2.83,3.16,3.31,8.08.5,4.91-.96,8.75-1.66,8.57-.76-.16-.58-3.86-1.04-8.3-.42-4.44-1.32-8.04-.6-8.34ZM1020.38,629.63c.31-.17,1.3.84,2.4,2.8,1.1,1.96,2.24,4.9,2.78,8.31.54,3.41.37,6.56-.06,8.76-.44,2.21-1.06,3.48-1.42,3.41-.78-.16-.16-5.44-1.2-11.75-.96-6.32-3.19-11.15-2.51-11.54ZM998.08,627.67c.29-.2,1.44.78,2.81,2.76,1.37,1.97,2.89,4.98,3.84,8.55.95,3.57,1.14,6.93.93,9.32-.2,2.4-.7,3.82-1.06,3.79-.79-.07-.68-5.78-2.5-12.42-1.74-6.66-4.68-11.55-4.03-12.01ZM973.51,637.34c.59-.4,4.29,4.31,6.28,11.31,2.04,6.99,1.41,12.95.7,12.92-.79.01-1.38-5.6-3.31-12.17-1.87-6.59-4.35-11.66-3.67-12.06Z"/>
    <path class="cls-27" d="M1035.56,718.41c11.61-14.49,18.46-32.82,19.01-51.39-2.58,11.25-7.74,21.92-15.16,30.78-3.52,4.19-7.61,8.18-9.33,13.37-1.58,4.78-.94,9.98-.53,15,2.87,34.97-6.84,71.02-27.78,99.16-5.09,6.83-11.86,13.72-20.38,13.84-6.56.09-12.45-3.92-17.35-8.29-4.16-3.7-7.94-7.8-11.36-12.19,4.11,17.42,7.34,35.05,9.62,52.81,28.3-10.44,50.73-35.14,62.35-63.3,10.91-26.43,13.36-55.53,11.36-84.19-.13-1.87-.27-3.73-.44-5.59Z"/>
    <path class="cls-16" d="M1043.15,284.47c36.35-5.4,70.98-21.92,98.05-46.78-61.9,15.66-128.34,12.88-188.71-7.88-29.06-9.99-58.98-26.43-70.34-54.98-36.58,19.37-80.41,24.61-120.53,14.43-9.04-2.3-17.86-5.41-26.38-9.19,24.17,27.87,43.46,59.88,57.4,94.15,26.63-17.8,48.71-42.34,63.66-70.67,8.66,15.42,20.1,29.34,33.02,41.46,18.45,17.31,39.87,31.17,62.05,43.35,31.05,17.05,64.23,31.12,99.26,36.32,12.72,1.89,25.72,2.52,38.59,1.74,21.01-1.27,41.66-6.35,60.22-16.03-1.1-.2-2.19-.47-3.28-.69-35.73.53-71.61-8.15-103.01-25.23Z"/>
    <path class="cls-9" d="M1142.88,262.2c18.78-15.29,34.42-34.35,45.95-55.64-26.72,9.89-56.6,10.9-84.09,3.36,16.03-5.1,30.78-14.19,42.67-26.11-18.41,3.32-38.81-2.06-54.79-12.55-22.11-14.51-37.6-36.92-52.38-58.84-14.78-21.93-29.94-44.49-51.69-59.53-22.92-15.86-51.51-21.99-79.38-21.71-22.8.23-45.32,4.5-67.51,9.96-4.86-13.1-5.06-27.95-.45-41.14-7.09,4.55-13.08,10.82-17.12,18.22-4.16,7.62-6.17,16.34-6.03,25.02-20.27-7.91-43.79-7.37-63.68,1.46,12.45,3.12,24.19,9.1,34.05,17.34-20.47,5.37-39.88,14.82-56.63,27.77-16.82,13-30.9,29.49-41.27,48.04,8.24,6.33,16.16,13.07,23.69,20.21,7.37,6.99,14.36,14.35,21,22.01,8.52,3.78,17.34,6.9,26.38,9.19,40.12,10.19,83.95,4.94,120.53-14.43,11.36,28.55,41.28,44.99,70.34,54.98,60.38,20.77,126.81,23.54,188.71,7.88-27.07,24.86-61.69,41.38-98.05,46.78,31.4,17.08,67.28,25.76,103.01,25.23-18.56-3.85-36.28-11.79-51.34-23.29,17.46-3.35,34.07-12.82,48.06-24.21Z"/>
    <path class="cls-11" d="M798.21,504.88c1.24-5.97,2.61-11.91,4.03-17.84,6.33-26.35,13.8-52.49,16.45-79.43,3.84-38.98-2.94-78.88-19-114.59-2.69-5.99-5.65-11.85-8.86-17.58-2.67-4.77-5.49-9.47-8.52-14.03-22.06-33.25-53.28-60.26-89.12-77.77-3.33-2.61-6.71-5.15-10.19-7.57-68.46-47.71-162.42-56.15-238.28-21.4-21.1,9.66-40.99,22.56-56.56,39.77-13.4,14.81-23.45,32.98-27.42,52.49,2.85,3.66,5.96,7.1,9.34,10.29,8.84,8.33,19.33,15.03,30.62,20.13,8.49,3.83,17.41,6.77,26.42,8.78,30.22,6.74,61.63,4.58,92.5,2.12,30.87-2.46,62.16-5.17,92.6.52,5.78,1.08,11.49,2.51,17.13,4.19,27.25,8.15,52.42,23.17,72.46,43.35,2.06,2.08,4.09,4.19,6.04,6.37,24.82,27.79,40.11,63.93,42.79,101.1,2.3,31.99-4.46,63.96-4.32,96.03.08,18.91,3.23,38.74,11.05,55.77.76.45,1.54.87,2.31,1.28.6.32,1.22.63,1.83.93-.65-5.45-1.13-10.93-1.43-16.41,1.21-17.55,4.88-35.08,9.28-52.62.35-14.33,1.06-28.67,1.61-42.93,1.66-43.33,1.39-88.09-15.3-128.12-16.56-39.71-47.69-68.89-85.81-87.63-41.57-20.43-91.73-17.93-136.75-13.97-50.87,4.48-103.2,11.69-152.17-2.79,59.91-10.16,119.82-20.33,179.73-30.49-36.35-8.1-73.76-11.39-110.96-9.76,66.29-24.66,143.37-18.41,204.81,16.62-26.85-38.52-70.34-65-116.89-71.16,15.89,2.1,32.09-.54,48.3,2.48,16.54,3.08,32.63,8.38,47.93,15.35,27.64,12.6,50.91,27.89,72.57,49.5,42.01,41.9,71.43,96.44,82.98,154.67,2.42,12.23,4.06,24.61,4.85,37.05,2.09,32.73-1.28,65.58-.45,98.37.1,3.89.27,7.79.51,11.69.86-6.48,1.94-12.93,3.2-19.31.23-1.15.45-2.31.69-3.45Z"/>
    <path class="cls-8" d="M794.27,417.59c-.79-12.44-2.43-24.82-4.85-37.05-11.54-58.23-40.97-112.77-82.98-154.67-21.66-21.61-44.93-36.9-72.57-49.5-15.3-6.97-31.39-12.27-47.93-15.35-16.2-3.02-32.41-.38-48.3-2.48,46.55,6.15,90.05,32.63,116.89,71.16-61.44-35.03-138.53-41.29-204.81-16.62,37.2-1.63,74.62,1.66,110.96,9.76-59.91,10.16-119.82,20.33-179.73,30.49,48.97,14.48,101.3,7.27,152.17,2.79,45.03-3.96,95.19-6.46,136.75,13.97,38.12,18.74,69.26,47.92,85.81,87.63,16.69,40.02,16.95,84.79,15.3,128.12-.55,14.26-1.26,28.61-1.61,42.93.83-3.29,1.67-6.59,2.54-9.88,2.58-9.78,5.27-19.57,7.79-29.36.58,7.89,1.15,15.78,1.73,23.67.94,12.95,1.89,25.89,2.83,38.84.73,10.04,1.49,20.22,4.83,29.71,2.02,5.75,5.15,11.26,9.31,15.67-7.11-22.31-7.19-46.24-4.09-69.77-.24-3.9-.41-7.8-.51-11.69-.82-32.79,2.54-65.64.45-98.37Z"/>
    <path class="cls-8" d="M347.6,237.91c-18.73,6.39-35.9,17.33-49.59,31.62,9.69-29.8,36.12-53.52,66.8-59.94-27.33-2.69-55.28,3.39-79.41,16.44-2.92,5.11-5.39,10.47-7.33,15.98-10.25,29.19-7.59,61.61,1.08,91.31,1.36,4.65,2.94,9.24,4.68,13.77.83-10.02,2.65-19.96,5.53-29.6,9.58-32.12,30.52-60.73,58.24-79.57Z"/>
    <path class="cls-8" d="M321.16,292.17c-15.87,17.72-27.98,38.72-35.7,61.22,2.22,15.79,7.3,31.17,15.01,45.13.44-4.31,1.01-8.59,1.63-12.82,3.9-26.35,9.89-52.71,21.86-76.5,10.55-20.97,26.14-39.92,46.13-52-.09-.08-.17-.18-.25-.26-18.54,7.4-35.26,20.24-48.68,35.23Z"/>
    <path class="cls-11" d="M714.24,158.06c-7.53-7.14-15.45-13.89-23.69-20.21-56.56-43.43-128.57-67.05-199.6-61.58-38.69,2.98-77.7,14.86-107.38,39.86-20.47,17.25-35.81,41.37-41.5,67.27-24.04,4.29-44.42,21.21-56.67,42.63,24.13-13.06,52.09-19.14,79.41-16.44-30.67,6.42-57.11,30.14-66.8,59.94,13.7-14.29,30.86-25.23,49.59-31.62-27.72,18.84-48.66,47.45-58.24,79.57-2.88,9.64-4.7,19.58-5.53,29.6.4,1.04.76,2.1,1.18,3.13.12,1.06.3,2.11.45,3.16,7.71-22.5,19.83-43.5,35.7-61.22,13.42-14.99,30.14-27.82,48.68-35.23-3.28-3.12-6.31-6.46-9.09-10.03,3.96-19.5,14.01-37.68,27.42-52.49,15.57-17.21,35.46-30.1,56.56-39.77,75.87-34.75,169.83-26.31,238.28,21.4,3.47,2.42,6.86,4.96,10.19,7.57,35.84,17.51,67.06,44.52,89.12,77.77,3.03,4.56,5.84,9.26,8.52,14.03.61-.4,1.2-.81,1.81-1.22-17.77-43.69-44.19-83.73-78.4-116.16Z"/>
  </g>
</svg>